<svg width="340" height="96" viewBox="0 0 340 96" fill="none" xmlns="http://www.w3.org/2000/svg" role="img" aria-label="TechHaven logo">
  <defs>
    <linearGradient id="markGradient" x1="12" y1="16" x2="84" y2="80" gradientUnits="userSpaceOnUse">
      <stop stop-color="#22D3EE"/>
      <stop offset="0.52" stop-color="#3B82F6"/>
      <stop offset="1" stop-color="#8B5CF6"/>
    </linearGradient>
    <linearGradient id="textGradient" x1="104" y1="30" x2="304" y2="68" gradientUnits="userSpaceOnUse">
      <stop stop-color="#0EA5E9"/>
      <stop offset="0.55" stop-color="#2563EB"/>
      <stop offset="1" stop-color="#7C3AED"/>
    </linearGradient>
    <linearGradient id="textEdgeGradient" x1="104" y1="21" x2="304" y2="76" gradientUnits="userSpaceOnUse">
      <stop stop-color="#E0F2FE"/>
      <stop offset="0.45" stop-color="#67E8F9"/>
      <stop offset="1" stop-color="#C4B5FD"/>
    </linearGradient>
    <filter id="softGlow" x="-20%" y="-20%" width="140%" height="140%" color-interpolation-filters="sRGB">
      <feGaussianBlur stdDeviation="2.8" result="blur"/>
      <feColorMatrix in="blur" type="matrix" values="0 0 0 0 0.125 0 0 0 0 0.827 0 0 0 0 0.933 0 0 0 0.45 0"/>
      <feBlend in="SourceGraphic" mode="screen"/>
    </filter>
    <filter id="textGlow" x="-8%" y="-12%" width="116%" height="130%" color-interpolation-filters="sRGB">
      <feGaussianBlur stdDeviation="1.8" result="blur"/>
      <feColorMatrix in="blur" type="matrix" values="0 0 0 0 0.063 0 0 0 0 0.725 0 0 0 0 0.914 0 0 0 0.62 0"/>
      <feMerge>
        <feMergeNode/>
        <feMergeNode in="SourceGraphic"/>
      </feMerge>
    </filter>
  </defs>

  <g filter="url(#softGlow)">
    <path d="M48 10L81 29V67L48 86L15 67V29L48 10Z" stroke="url(#markGradient)" stroke-width="5" stroke-linejoin="round"/>
    <path d="M48 24L68 36V60L48 72L28 60V36L48 24Z" fill="url(#markGradient)" fill-opacity="0.14" stroke="url(#markGradient)" stroke-width="3" stroke-linejoin="round"/>
    <path d="M48 24V72M28 36L68 60M68 36L28 60" stroke="url(#markGradient)" stroke-width="2.4" stroke-linecap="round" opacity="0.86"/>
    <circle cx="48" cy="24" r="4" fill="#22D3EE"/>
    <circle cx="68" cy="36" r="4" fill="#60A5FA"/>
    <circle cx="68" cy="60" r="4" fill="#818CF8"/>
    <circle cx="48" cy="72" r="4" fill="#A78BFA"/>
    <circle cx="28" cy="60" r="4" fill="#38BDF8"/>
    <circle cx="28" cy="36" r="4" fill="#0EA5E9"/>
    <path d="M40 41H56M48 41V58" stroke="#E0F2FE" stroke-width="5" stroke-linecap="round" stroke-linejoin="round"/>
  </g>

  <g filter="url(#textGlow)" transform="skewX(-8)">
    <text x="95" y="60" fill="none" stroke="url(#textEdgeGradient)" stroke-width="1.7" font-family="Arial Black, Impact, Segoe UI, Arial, sans-serif" font-size="34" font-weight="900" letter-spacing="0.6">TechHaven</text>
    <text x="95" y="60" fill="url(#textGradient)" font-family="Arial Black, Impact, Segoe UI, Arial, sans-serif" font-size="34" font-weight="900" letter-spacing="0.6">TechHaven</text>
    <path d="M127 35H164M198 35H247M110 64H151M215 64H287" stroke="#E0F2FE" stroke-width="1.4" stroke-linecap="round" opacity="0.65"/>
    <path d="M190 29L201 29L194 36H183L190 29ZM275 55L289 55L280 64H266L275 55Z" fill="#22D3EE" opacity="0.78"/>
  </g>
  <path d="M105 69H303" stroke="url(#textGradient)" stroke-width="2" stroke-linecap="round" opacity="0.42"/>
  <path d="M262 25H294M300 25H306M246 73H278M284 73H292" stroke="#22D3EE" stroke-width="2" stroke-linecap="round" opacity="0.52"/>
</svg>
